<svg display="none" version="1.1" xmlns="http://www.w3.org/2000/svg" xmlns:xlink="http://www.w3.org/1999/xlink">
  <defs>
     <symbol id="eye01" viewbox="0 0 600 900">
        <g>
            <path d="M 255.5 201.31111167781808 C 254.95 201.1203573978753 253.93 201.53482142857143 253.23333333333335 202.23214285714286 C 252.53666666666666 202.9294642857143 251.97584879386358 204.175 251.9870713937709 205 C 251.9982939936782 205.825 252.95739502653052 208.075 254.11840702233155 210 C 255.36962985987253 212.07457284763407 256.3782020073077 215.7399569537179 256.59485943883294 219 C 256.7958962721076 222.025 257.7567952392553 226.07267187225443 258.7301904769389 227.9948263827876 C 259.7310891496488 229.9712916703252 261.6947640754065 231.92636015735405 263.25 232.4948263827876 C 265.0862215656089 233.1659978275536 266.879836273465 233.1677169329487 268.64785166837623 232.5 C 270.1041700859832 231.95 272.24167008598323 230.2217592730013 273.39785166837623 228.659465051114 C 274.69644902630347 226.90473103723306 275.6453562810219 223.84671286940625 275.8802627009904 220.659465051114 C 276.0894071865351 217.8217592730013 275.9769071865351 213.8125 275.6302627009904 211.75 C 275.2836182154457 209.6875 273.875 206.65 272.5 205 C 270.55189950855896 202.66227941027077 269.17215073716153 201.9928043925882 266.25 201.96740526445387 C 263.75591345319634 201.94572684007463 261.8301794916286 202.62093682780161 260.5 203.983497573627 L 258.5 206.03218461834624 L 257.5 203.84506112984835 C 256.95 202.6421432111745 256.05 201.50186595776088 255.5 201.31111167781808 Z M 347.75 201.60075111407423 C 347.0625 201.3811642268151 345.7125 201.60616422681508 344.75 202.10075111407423 C 343.7875 202.5953380013334 343 203.675 343 204.5 C 343 205.325 342.775 206 342.5 206 C 342.225 206 341.1 205.1 340 204 C 338.8888888888889 202.88888888888889 336.6666666666667 202 335 202 C 333.35 202 331.1 202.45 330 203 C 328.9 203.55 327.25313055461834 205.4625 326.34029012137404 207.25 C 325.2914148023141 209.30387991651105 324.65450993341784 213.0762586413608 324.60974412312027 217.5 C 324.55585729758826 222.82507682106228 325.02659654865164 225.33746158946886 326.577102864632 228 C 327.6981100382588 229.925 329.826855737473 231.95 331.3076488628858 232.5 L 334 233.5 L 336.64785166837623 232.5 C 338.1041700859832 231.95 340.15040177845873 230.375 341.1950332072109 229 C 342.3849451549855 227.43377397696668 343.3184606855231 224.07218765988662 343.69434126666795 220 C 344.0243292706172 216.425 344.59168160233787 213.275 344.95512422604725 213 C 345.3185668497566 212.725 346.38082438492614 211.375 347.315696526424 210 C 348.25056866792187 208.625 349.0119846437256 206.2625 349.00773202821006 204.75 C 349.0034794126945 203.2375 348.4375 201.8203380013334 347.75 201.60075111407423 Z ">
        </g>
     </symbol>

    <symbol id="eye02" viewbox="0 0 600 900">
        <g>
            <path d="M 265.5 200.95768256995206 C 264.4 200.94291321445672 262.2625 201.84639262715126 260.75 202.9654145981621 C 259.2375 204.08443656917294 257.4924653852036 206.6875 256.87214530045253 208.75 C 256.25182521570144 210.8125 255.9143252157014 215.50249763363942 256.12214530045253 219.17221696364314 C 256.3850317575078 223.81430684733957 257.108531494407 226.67417646758088 258.5 228.57146629264702 C 259.6 230.0713340935954 261.7375 231.681336459956 263.25 232.14924932900385 C 265.04521627640264 232.70462440236122 266.95478372359736 232.56560906992854 268.75 231.74885272112132 C 270.2625 231.06072171773806 272.28680070041435 228.92322171773804 273.24844600092075 226.99885272112132 C 274.39408924475697 224.7062815012954 274.997427766131 221.1728371318429 274.99844600092075 216.75 C 274.9993675779756 212.74700849030762 274.38955366882055 208.77910733764105 273.5 207 C 272.675 205.35 270.9875 203.32152058730549 269.75 202.49226797178994 C 268.5125 201.6630153562744 266.6 200.97245192544736 265.5 200.95768256995206 Z M 334.25 201.983016763661 C 332.7375 201.97367598367458 330.72716404044724 202.53617598367458 329.78258675654934 203.233016763661 C 328.8380094726515 203.92985754364744 327.3755094726515 206.1875 326.53258675654934 208.25 C 325.6896640404472 210.3125 325 214.475 325 217.5 C 325 220.525 325.47997559773336 224.2375 326.06661243940755 225.75 C 326.6532492810817 227.2625 328.11574928108166 229.52407138824196 329.31661243940755 230.77571419609325 C 330.6503717795877 232.16587282821277 332.66739909452684 233.04443093668502 334.5 233.0334462243033 C 336.15 233.02355603196756 338.5125 232.3369846437256 339.75 231.50773202821006 C 340.9875 230.67847941269451 342.52427113017956 228.3125 343.1650469559546 226.25 C 343.8058227817296 224.1875 344.3063391395733 219.8 344.2773055289406 216.5 C 344.247346776692 213.09484713524523 343.5272563894074 209.09445780174215 342.612258572986 207.25 C 341.7255163578437 205.4625 340.1 203.55 339 203 C 337.9 202.45 335.7625 201.99235754364744 334.25 201.983016763661 Z ">
        </g>
     </symbol>

  </defs>
</svg>
